<svg width="24" height="24" viewBox="0 0 24 24" fill="none" xmlns="http://www.w3.org/2000/svg">
<path fill-rule="evenodd" clip-rule="evenodd" d="M4.86805 2.40305C4.65569 2.40259 4.45098 2.42671 4.25645 2.47257C3.98979 1.88272 3.63755 1.35353 3.23693 0.951472C2.55696 0.269065 1.48454 0 0 0V2.4C0.906887 2.4 1.42876 2.53094 1.54593 2.64853C1.99788 3.10209 2.39143 4.02367 2.39143 4.8L2.40345 4.96971L3.57509 13.2006C1.61464 13.3027 0.0958934 14.8306 0.00146903 16.7405L0 18C0.115771 19.9727 1.62946 21.4902 3.51927 21.5981L3.79072 21.5985C4.28273 22.9975 5.61186 24 7.17428 24C8.73615 24 10.0649 22.9982 10.5573 21.6H13.357C13.8494 22.9982 15.1781 24 16.74 24C18.7211 24 20.3271 22.3882 20.3271 20.4C20.3271 18.4118 18.7211 16.8 16.74 16.8C15.1781 16.8 13.8494 17.8018 13.357 19.2H10.5573C10.0649 17.8018 8.73615 16.8 7.17428 16.8C5.61242 16.8 4.2837 17.8018 3.79126 19.2H3.58714C2.97734 19.1633 2.43033 18.6149 2.38928 17.9281L2.39143 16.8C2.42367 16.1776 2.96694 15.6324 3.6464 15.5985L6.0069 15.5991L6.02401 15.6H18.0754L18.2519 15.5438C19.1585 15.2551 19.8843 14.57 20.2279 13.683L20.3539 13.4328L20.7632 12.619C21.1866 11.7767 21.61 10.9329 22.0226 10.1086C23.0333 8.08929 23.6689 6.80599 23.8097 6.49087C24.5325 4.87254 23.0682 3.62696 21.5715 3.60043L4.86805 2.40305ZM17.6608 13.2H6.11431C6.03753 13.1786 5.97903 13.1133 5.96757 13.032L4.7959 4.80088L21.3961 5.99391C21.1057 6.58839 20.5777 7.65019 19.8864 9.03131L19.8691 9.06591C19.4745 9.85423 19.0517 10.6969 18.6288 11.5381L18.2201 12.3508L18.0651 12.6586L18.0068 12.7947C17.9443 12.9693 17.8203 13.1128 17.6608 13.2ZM16.7406 21.6C17.401 21.6 17.9363 21.0627 17.9363 20.4C17.9363 19.7373 17.401 19.2 16.7406 19.2C16.0803 19.2 15.5449 19.7373 15.5449 20.4C15.5449 21.0627 16.0803 21.6 16.7406 21.6ZM8.37092 20.4C8.37092 21.0627 7.83558 21.6 7.17521 21.6C6.51483 21.6 5.97949 21.0627 5.97949 20.4C5.97949 19.7373 6.51483 19.2 7.17521 19.2C7.83558 19.2 8.37092 19.7373 8.37092 20.4Z" fill="#ED6B28"/>
</svg>
